{"title":"Spin.City.Season04.DVDRip.XviD-SAiNTS","uid":6914427,"size":4754135057,"categoryP":"video","categoryS":"tv_shows","magnet":"?xt=urn:btih:69ea11b10081bd0679c89a2f3ffbbbf7fa118c67&amp;dn=Spin.City.Season04.DVDRip.XviD-SAiNTS&amp;tr=udp%3A%2F%2Ftracker.openbittorrent.com%3A80&amp;tr=udp%3A%2F%2Fopen.demonii.com%3A1337&amp;tr=udp%3A%2F%2Ftracker.coppersurfer.tk%3A6969&amp;tr=udp%3A%2F%2Fexodus.desync.com%3A6969","seeders":1,"leechers":0,"uploader":"doctorgauss","files":26,"time":1324976313,"description":"It's DVDRip &quot;Spin City&quot; full Season 4 without (yet) subtitle. Rip by SAiNTS.\n\n\nVideo\n\nFormat                                   : MPEG-4 Visual\nCodec ID                                 : XVID\nBit rate                                 : 994 Kbps\nWidth                                    : 560 pixels\nHeight                                   : 416 pixels\nDisplay aspect ratio                     : 4:3\nFrame rate                               : 23.976 fps\nColor space                              : YUV\nChroma subsampling                       : 4:2:0\nBit depth                                : 8 bits\nScan type                                : Progressive\nCompression mode                         : Lossy\nBits/(Pixel*Frame)                       : 0.178\nStream size                              : 152 MiB (87%)\n\n\nAudio\n\nFormat                                   : MPEG Audio\nFormat version                           : Version 1\nFormat profile                           : Layer 3\nMode                                     : Joint stereo\nMode extension                           : MS Stereo\nCodec ID                                 : 55\nCodec ID/Hint                            : MP3\nBit rate mode                            : Variable\nBit rate                                 : 128 Kbps\nChannel(s)                               : 2 channels\nSampling rate                            : 48.0 KHz\nCompression mode                         : Lossy\nStream size                              : 20.2 MiB (12%)\nAlignment                                : Aligned on interleaves\nInterleave, duration                     : 24 ms (0.58 video frame)\nInterleave, preload duration             : 244 ms\nWriting library                          : LAME3.96r\n","torrent":{"xt":"urn:btih:69ea11b10081bd0679c89a2f3ffbbbf7fa118c67","amp;dn":"Spin.City.Season04.DVDRip.XviD-SAiNTS","amp;tr":["udp%3A%2F%2Ftracker.openbittorrent.com%3A80","udp%3A%2F%2Fopen.demonii.com%3A1337","udp%3A%2F%2Ftracker.coppersurfer.tk%3A6969","udp%3A%2F%2Fexodus.desync.com%3A6969"],"infoHash":"69ea11b10081bd0679c89a2f3ffbbbf7fa118c67","infoHashBuffer":{"type":"Buffer","data":[105,234,17,177,0,129,189,6,121,200,154,47,63,251,187,247,250,17,140,103]},"announce":[],"urlList":[]}}